<?xml version="1.0" encoding="UTF-8"?>
<svg id="Layer_1" data-name="Layer 1" xmlns="http://www.w3.org/2000/svg" viewBox="0 0 1006.51 332.65">
  <defs>
    <style>
      .cls-1 {
        fill: #00afa5;
      }

      .cls-2 {
        fill: #1050ad;
      }

      .cls-3 {
        fill: #323a45;
      }
    </style>
  </defs>
  <path class="cls-3" d="M430.6,115.04c.48-3.83,2.54-5.75,6.18-5.75h9.17c3.33,0,5.57,1.62,6.71,4.86l18.14,45.29c.57,1.52,1.17,3.14,1.78,4.86.62,1.71,1.17,3.33,1.64,4.86l1.71,5.14h.29c.48-1.71,1-3.43,1.57-5.14.48-1.52,1.02-3.14,1.64-4.86.62-1.71,1.22-3.33,1.79-4.86l18.14-45.29c1.14-3.24,3.43-4.86,6.86-4.86h8.88c3.83,0,5.89,1.92,6.18,5.75l7.33,90.08c.29,4.12-1.63,6.18-5.75,6.18h-6.47c-3.83,0-5.89-1.91-6.18-5.75l-3.88-51.29c-.19-1.63-.29-3.38-.29-5.24v-5.44c0-1.81.05-3.57.14-5.29h-.29c-.67,2-1.29,3.91-1.86,5.71-.57,1.62-1.17,3.34-1.79,5.14-.62,1.81-1.21,3.43-1.79,4.86l-14.71,34.57c-1.14,3.14-3.38,4.71-6.71,4.71h-6.08c-3.42,0-5.7-1.57-6.84-4.7l-14.53-34.48c-.57-1.42-1.19-3.06-1.85-4.92-.67-1.85-1.28-3.58-1.85-5.2-.67-1.9-1.28-3.8-1.85-5.7h-.38c.09,1.82.14,3.64.14,5.46,0,1.63-.02,3.38-.07,5.24-.05,1.87-.12,3.62-.22,5.24l-3.88,51.3c-.29,3.83-2.35,5.75-6.18,5.75h-6.45c-4.12,0-6.03-2.06-5.75-6.18l7.33-90.08ZM539.52,174.56c0-5.64.91-10.81,2.73-15.5,1.82-4.69,4.35-8.73,7.61-12.13,3.25-3.39,7.18-6.03,11.77-7.89,4.59-1.87,9.61-2.8,15.07-2.8,5.17,0,9.78.89,13.85,2.66,4.07,1.77,7.46,4.19,10.19,7.25,2.73,3.06,4.81,6.75,6.24,11.05,1.43,4.31,2.15,8.95,2.15,13.92,0,1.63-.6,3.06-1.79,4.31-1.2,1.25-2.7,1.87-4.52,1.87h-44.63c.29,3.35,1.08,6.27,2.37,8.75,1.29,2.49,2.92,4.57,4.88,6.24,1.96,1.68,4.21,2.94,6.75,3.8,2.53.86,5.19,1.29,7.96,1.29,3.35,0,6.39-.52,9.11-1.58,2.73-1.05,4.95-2.1,6.67-3.16,1.82-.86,3.37-1.15,4.66-.86,1.29.29,2.42,1.24,3.37,2.87l1.72,2.87c1.82,3.44,1.15,6.12-2.01,8.04-2.39,1.53-5.69,3.14-9.9,4.81-4.21,1.67-9.19,2.51-14.93,2.51-6.03,0-11.48-1.03-16.36-3.09-4.88-2.06-9.02-4.83-12.41-8.32-3.4-3.49-6-7.56-7.82-12.2-1.82-4.64-2.73-9.54-2.73-14.71ZM591.04,166.29c-.19-5.17-1.65-9.16-4.38-11.98-2.73-2.82-6.2-4.23-10.4-4.23-4.69,0-8.59,1.48-11.7,4.45-3.11,2.97-5.09,6.89-5.95,11.77h32.43ZM621.06,143.3c0-4.01,1.95-6.01,5.86-6.01h5.12c3.33,0,6.03,2.7,6.03,6.03v6.93c0,.77-.02,1.44-.07,2.02-.05.58-.12,1.1-.22,1.58-.1.48-.14.96-.14,1.44h.71c.67-2.2,1.67-4.4,3.02-6.6,1.34-2.2,2.94-4.18,4.81-5.95,1.87-1.77,3.93-3.21,6.18-4.31,2.25-1.1,4.67-1.65,7.25-1.65,2.01,0,3.42.5,4.24,1.51.81,1,1.22,2.51,1.22,4.52v5.6c0,4.02-2.06,6.03-6.18,6.03-3.35,0-6.27.77-8.76,2.3-2.49,1.53-4.55,3.54-6.18,6.03-1.63,2.49-2.85,5.31-3.66,8.47-.81,3.16-1.22,6.41-1.22,9.76v23.3c0,4.01-1.95,6.01-5.86,6.01h-6.29c-3.91,0-5.86-2-5.86-6.01v-60.98ZM678.54,225.64c.76-1.81,1.72-2.97,2.91-3.49,1.18-.52,2.71-.45,4.61.21,1.7.66,3.73,1.28,6.09,1.85,2.36.57,5.2.85,8.5.85,2.74,0,5.36-.31,7.87-.93,2.5-.62,4.68-1.64,6.52-3.06,1.84-1.43,3.31-3.25,4.39-5.49,1.09-2.23,1.63-4.96,1.63-8.19v-6.7c0-.38.05-.76.14-1.14,0-.38.05-.81.14-1.28h-.28c-1.98,3.42-4.58,6.08-7.8,7.98-3.21,1.9-7.23,2.85-12.05,2.85-5.29,0-9.97-.97-14.03-2.92-4.06-1.95-7.49-4.61-10.28-7.98-2.79-3.37-4.89-7.29-6.31-11.75-1.42-4.46-2.13-9.21-2.13-14.25s.68-9.59,2.06-13.96c1.37-4.37,3.42-8.19,6.17-11.47,2.74-3.28,6.14-5.86,10.2-7.76,4.06-1.9,8.79-2.85,14.17-2.85,4.25,0,7.75.59,10.49,1.78,2.74,1.19,4.91,2.45,6.52,3.78,1.89,1.71,3.35,3.56,4.39,5.56h-.27c-.1-.09-.15-.23-.15-.41v-3.95c0-1.27.51-2.36,1.54-3.27,1.03-.91,2.51-1.36,4.47-1.36h4.98c4.01,0,6.01,1.91,6.01,5.73v62.11c0,6.27-1.11,11.56-3.33,15.88-2.22,4.32-5.1,7.86-8.65,10.61-3.54,2.75-7.56,4.75-12.05,5.98-4.49,1.23-8.95,1.85-13.39,1.85-4.06,0-7.99-.38-11.76-1.14-3.78-.76-6.9-1.66-9.35-2.71-3.59-1.52-4.63-4.08-3.12-7.69l1.13-3.28ZM704.27,194.05c2.1,0,4.18-.33,6.24-1,2.06-.67,3.87-1.84,5.45-3.52,1.58-1.67,2.85-3.87,3.8-6.6.96-2.73,1.43-6.15,1.43-10.26s-.48-7.68-1.43-10.4c-.96-2.73-2.25-4.9-3.87-6.53-1.63-1.63-3.52-2.75-5.67-3.37-2.15-.62-4.43-.93-6.82-.93-5.74,0-10.1,1.84-13.06,5.52-2.97,3.68-4.45,8.54-4.45,14.57,0,6.6,1.58,12.01,4.74,16.22,3.16,4.21,7.7,6.31,13.63,6.31ZM751.2,174.56c0-5.64.91-10.81,2.73-15.5,1.82-4.69,4.35-8.73,7.61-12.13,3.25-3.39,7.18-6.03,11.77-7.89,4.59-1.87,9.61-2.8,15.07-2.8,5.17,0,9.78.89,13.85,2.66,4.07,1.77,7.46,4.19,10.19,7.25,2.73,3.06,4.81,6.75,6.24,11.05,1.43,4.31,2.15,8.95,2.15,13.92,0,1.63-.6,3.06-1.79,4.31-1.2,1.25-2.7,1.87-4.52,1.87h-44.63c.29,3.35,1.08,6.27,2.37,8.75,1.29,2.49,2.92,4.57,4.88,6.24,1.96,1.68,4.21,2.94,6.75,3.8,2.53.86,5.19,1.29,7.96,1.29,3.35,0,6.39-.52,9.11-1.58,2.73-1.05,4.95-2.1,6.67-3.16,1.82-.86,3.37-1.15,4.66-.86,1.29.29,2.42,1.24,3.37,2.87l1.72,2.87c1.82,3.44,1.15,6.12-2.01,8.04-2.39,1.53-5.69,3.14-9.9,4.81-4.21,1.67-9.19,2.51-14.93,2.51-6.03,0-11.48-1.03-16.36-3.09-4.88-2.06-9.02-4.83-12.41-8.32-3.4-3.49-6-7.56-7.82-12.2-1.82-4.64-2.73-9.54-2.73-14.71ZM802.72,166.29c-.19-5.17-1.65-9.16-4.38-11.98-2.73-2.82-6.2-4.23-10.4-4.23-4.69,0-8.59,1.48-11.7,4.45-3.11,2.97-5.09,6.89-5.95,11.77h32.43ZM835.06,115.32c0-4.02,1.95-6.03,5.84-6.03h6.28c3.92,0,5.88,2.01,5.88,6.03v79.97h37.98c4.01,0,6.02,1.94,6.02,5.82v4.2c0,3.99-2,5.98-5.99,5.98h-50.17c-3.9,0-5.84-2.01-5.84-6.03v-89.93ZM896.2,224.31c1.15-.43,2.34-.5,3.58-.21.67.29,1.43.57,2.29.86.86.29,1.81.43,2.87.43,2.67,0,5.01-.98,7.02-2.94,2.01-1.96,3.53-4.23,4.58-6.8l2.72-6.45-27.79-64.89c-.96-2.1-1-3.8-.14-5.09.86-1.29,2.44-1.93,4.73-1.93h7.74c3.34,0,5.59,1.63,6.73,4.87l13.75,37.24c.29,1.05.6,2.13.93,3.22.33,1.1.64,2.17.93,3.22.38,1.15.67,2.29.86,3.44h.29c.19-1.15.43-2.24.72-3.29.19-.95.45-1.98.79-3.08.33-1.1.64-2.17.93-3.22l12.89-37.39c.95-3.34,3.2-5.01,6.73-5.01h7.16c2.2,0,3.75.62,4.66,1.86.91,1.24.98,2.91.21,5.01l-30.08,77.07c-1.24,3.34-2.82,6.21-4.73,8.59-1.91,2.39-4.01,4.37-6.3,5.94-2.29,1.58-4.75,2.74-7.38,3.51-2.63.76-5.28,1.15-7.95,1.15-2.01,0-3.87-.24-5.59-.72-1.72-.48-3.25-.96-4.58-1.43-1.72-.67-2.79-1.72-3.22-3.15-.43-1.43-.26-2.96.5-4.58l1.29-3.15c.76-1.63,1.72-2.65,2.87-3.08Z"/>
  <rect class="cls-2" x="44.06" y="44.29" width="240" height="50" rx="25" ry="25"/>
  <rect class="cls-1" x="136.06" y="109.29" width="240" height="50" rx="25" ry="25"/>
  <rect class="cls-2" x="45.06" y="173.29" width="183" height="50" rx="25" ry="25"/>
  <rect class="cls-1" x="136.06" y="238.29" width="183" height="50" rx="25" ry="25"/>
  <path class="cls-3" d="M431.71,254.29l8.66,20.99,8.66-20.99h4.03v26h-3v-10.46l.33-11.14-8.7,21.59h-2.68l-8.68-21.54-.28,11.08v10.46h-3v-26h4.65ZM467.25,280.53c-2.72,0-4.93-.88-6.63-2.63-1.7-1.75-2.56-4.1-2.56-7.03v-.62c0-1.95.38-3.7,1.14-5.23.76-1.53,1.82-2.74,3.19-3.6s2.84-1.3,4.44-1.3c2.6,0,4.63.84,6.07,2.53,1.44,1.69,2.17,4.1,2.17,7.24v1.4h-13.57c.05,1.94.63,3.51,1.73,4.7,1.1,1.2,2.51,1.79,4.21,1.79,1.21,0,2.23-.24,3.07-.73.84-.48,1.57-1.13,2.2-1.93l2.09,1.6c-1.68,2.54-4.2,3.8-7.56,3.8ZM464.5,263.59c-1.27,1-2.04,2.56-2.3,4.7h9.86v-.25c-.1-1.71-.56-3.04-1.38-3.98-.76-.87-1.78-1.34-3.04-1.4-1.12-.06-2.26.24-3.14.93ZM489.06,263.48c-.73-.08-1.29-.13-1.88-.13-2.21,0-5.12,2.82-5.12,2.82v14.11h-3v-20h3.53l.05,2.45c1.1-1.76,2.67-2.64,4.69-2.64.65,0,1.15.08,1.72.25v3.13ZM491.32,270.14c0-3.07.71-5.51,2.13-7.32,1.42-1.81,3.3-2.72,5.64-2.72s4.28.85,5.62,2.55l.16-2.36h3.19v19.39c-.11,2.55-.87,4.56-2.38,6.02-1.51,1.47-3.54,2.2-6.09,2.2-1.42,0-2.81-.3-4.17-.91-1.36-.61-2.4-1.44-3.11-2.49l1.75-2.02c1.44,1.78,3.21,2.68,5.29,2.68,1.64,0,2.91-.46,3.83-1.38.92-.92,1.37-2.22,1.87-3.89v-1.69c-1.85,1.55-3.68,2.33-6.01,2.33s-4.17-.93-5.59-2.78c-1.43-1.86-2.14-4.39-2.14-7.59ZM495.2,270.53c0,2.22.45,3.96,1.36,5.23.91,1.27,2.18,1.9,3.82,1.9,2.12,0,3.68-.96,4.68-2.89v-8.99c-1.03-1.88-2.58-2.82-4.64-2.82-1.64,0-2.92.64-3.84,1.91-.92,1.27-1.38,3.16-1.38,5.66ZM521.25,280.53c-2.72,0-4.93-.88-6.63-2.63-1.7-1.75-2.56-4.1-2.56-7.03v-.62c0-1.95.38-3.7,1.14-5.23.76-1.53,1.82-2.74,3.19-3.6s2.84-1.3,4.44-1.3c2.6,0,4.63.84,6.07,2.53,1.44,1.69,2.17,4.1,2.17,7.24v1.4h-13.57c.05,1.94.63,3.51,1.73,4.7,1.1,1.2,2.51,1.79,4.21,1.79,1.21,0,2.23-.24,3.07-.73.84-.48,1.57-1.13,2.2-1.93l2.09,1.6c-1.68,2.54-4.2,3.8-7.56,3.8ZM518.5,263.59c-1.27,1-2.04,2.56-2.3,4.7h9.86v-.25c-.1-1.71-.56-3.04-1.38-3.98-.76-.87-1.78-1.34-3.04-1.4-1.12-.06-2.26.24-3.14.93ZM547.06,277.29h12v3h-16v-27h4v24ZM569.52,275.05l4.59-14.76h3.6l-7.92,22.73c-1.23,3.28-3.17,4.91-5.84,4.91l-.64-.05-1.26-.24v-2.73l.91.07c1.14,0,2.03-.23,2.67-.69s1.16-1.3,1.57-2.53l.75-2-7.02-19.47h3.68l4.91,14.76ZM590.06,263.31c-.5-.08-1.04-.13-1.62-.13-2.15,0-3.62.94-4.38,2.82v14.29h-3v-20h2.91l.05,2.28c1.08-1.76,2.6-2.64,4.58-2.64.64,0,1.12.08,1.46.25v3.13ZM593.42,255.24c0-.55.17-1.01.5-1.38.33-.38.83-.56,1.48-.56s1.15.19,1.49.56c.34.38.51.84.51,1.38s-.17,1-.51,1.36c-.34.36-.84.55-1.49.55s-1.15-.18-1.48-.55c-.33-.36-.5-.82-.5-1.36ZM597.06,280.29h-3v-20h3v20ZM610.53,277.77c1.2,0,2.25-.36,3.15-1.09.9-.73,1.4-1.64,1.49-2.39h3.18c-.06.79-.45,1.86-1.16,2.88-.72,1.02-1.67,1.83-2.87,2.44s-2.46.91-3.79.91c-2.68,0-4.81-.89-6.4-2.68-1.58-1.79-2.37-4.24-2.07-7.34v-.56c-.3-1.92.05-3.62.76-5.11.7-1.49,1.71-2.65,3.03-3.48,1.32-.82,2.87-1.24,4.67-1.24,2.21,0,4.04.66,5.5,1.98,1.46,1.32,2.24,3.04,2.34,5.21h-3.18c-.1-1.33-.58-2.38-1.45-3.2-.87-.82-1.94-1.23-3.21-1.23-1.71,0-3.04.62-3.98,1.85-.94,1.23-1.41,3.01-1.48,5.34v.64c.07,2.27.53,4.02,1.47,5.24.93,1.23,2.27,1.84,4,1.84ZM633.88,275.14c0-.93-.35-1.65-1.05-2.16-.7-.51-1.92-.96-3.66-1.33-1.74-.37-3.12-.82-4.14-1.34s-1.78-1.14-2.27-1.86-.73-1.57-.73-2.56c0-1.65.7-3.04,2.09-4.18,1.39-1.14,3.17-1.71,5.34-1.71,2.28,0,4.12.59,5.54,1.76,1.42,1.18,2.13,2.68,2.13,4.51h-3.45c0-.94-.4-1.75-1.2-2.43-.8-.68-1.8-1.02-3.02-1.02s-2.23.27-2.93.82-1.06,1.26-1.06,2.13c0,.83.33,1.45.98,1.87.66.42,1.84.82,3.55,1.21,1.71.38,3.1.84,4.17,1.37,1.06.53,1.85,1.17,2.37,1.92.45.65.7,1.43.76,2.33.11,1.8-.67,3.59-2.1,4.69s-3.32,1.66-5.63,1.66c-1.61,0-3.03-.28-4.27-.85-1.24-.57-2.21-1.36-2.9-2.38-.7-1.02-1.05-2.13-1.05-3.31h3.43c.06,1.15.52,2.06,1.38,2.74.86.67,1.99,1.01,3.41,1.01,1.3,0,2.34-.26,3.13-.79.79-.53,1.18-1.23,1.18-2.11ZM642.18,285.55l-1.74-1.31c1.04-1.59,1.58-3.23,1.62-4.91v-3.04h3v2.64c0,1.23-.27,2.45-.82,3.68-.55,1.23-1.23,2.21-2.06,2.95ZM678.06,253.29v18.01c-.01,2.5-.79,4.54-2.33,6.13-1.54,1.59-3.64,2.48-6.28,2.68l-.92.04c-2.87,0-5.16-.78-6.87-2.35-1.71-1.56-2.57-3.72-2.6-6.46v-18.05h3v17.94c0,1.92.52,3.41,1.56,4.47,1.04,1.06,2.52,1.59,4.44,1.59s3.43-.53,4.46-1.58c1.03-1.06,1.55-2.54,1.55-4.46v-17.96h4ZM686.15,260.29l.11,2.51c1.46-1.92,3.36-2.88,5.71-2.88,4.03,0,6.06,2.38,6.1,7.15v13.22h-3v-13.03c-.01-1.42-.35-2.47-1-3.15-.65-.68-1.67-1.02-3.06-1.02-1.12,0-2.11.29-2.96.87-.85.58-1.51,1.35-1.98,2.29v14.03h-3v-20h3.08ZM703.76,255.24c0-.55.17-1.01.5-1.38.33-.38.83-.56,1.48-.56s1.15.19,1.49.56c.34.38.51.84.51,1.38s-.17,1-.51,1.36c-.34.36-.84.55-1.49.55s-1.15-.18-1.48-.55c-.33-.36-.5-.82-.5-1.36ZM707.06,280.29h-3v-20h3v20ZM717.06,255.29v5h4v3h-4v12.22c0,.79.17,1.38.52,1.78.35.39.94.59,1.78.59.41,0,.98-.07,1.7-.22v2.45c-.87.24-1.71.36-2.54.36-1.48,0-2.59-.45-3.34-1.34s-1.12-2.16-1.12-3.8v-12.03h-4v-3h4v-5h3ZM733.25,280.53c-2.72,0-4.93-.88-6.63-2.63-1.7-1.75-2.56-4.1-2.56-7.03v-.62c0-1.95.38-3.7,1.14-5.23.76-1.53,1.82-2.74,3.19-3.6s2.84-1.3,4.44-1.3c2.6,0,4.63.84,6.07,2.53,1.44,1.69,2.17,4.1,2.17,7.24v1.4h-13.57c.05,1.94.63,3.51,1.73,4.7,1.1,1.2,2.51,1.79,4.21,1.79,1.21,0,2.23-.24,3.07-.73.84-.48,1.57-1.13,2.2-1.93l2.09,1.6c-1.68,2.54-4.2,3.8-7.56,3.8ZM730.5,263.59c-1.27,1-2.04,2.56-2.3,4.7h9.86v-.25c-.1-1.71-.56-3.04-1.38-3.98-.76-.87-1.78-1.34-3.04-1.4-1.12-.06-2.26.24-3.14.93ZM761.06,272.09l.5,3.43.73-3.09,5.14-18.14h2.89l5.02,18.14.71,3.14.55-3.5,4.04-17.79h3.45l-6.3,26h-3.13l-5.36-18.95-.41-1.98-.41,1.98-5.55,18.95h-3.13l-6.29-26h3.43l4.11,17.8ZM786.06,270.12c0-1.94.38-3.68,1.14-5.23s1.82-2.74,3.18-3.58c1.36-.84,2.91-1.26,4.65-1.26,2.69,0,4.87.93,6.53,2.8,1.66,1.86,2.49,4.34,2.49,7.44v.24c0,1.92-.37,3.65-1.11,5.18s-1.79,2.72-3.16,3.57c-1.37.85-2.95,1.28-4.72,1.28-2.68,0-4.85-.93-6.51-2.8-1.66-1.86-2.5-4.33-2.5-7.4v-.24ZM789.85,270.53c0,2.18.51,3.94,1.52,5.26,1.01,1.32,2.37,1.98,4.07,1.98s3.07-.67,4.08-2.01c1.01-1.34,1.51-3.22,1.51-5.63,0-2.16-.51-3.91-1.54-5.25-1.03-1.34-2.39-2.01-4.09-2.01s-3,.66-4.02,1.98c-1.02,1.32-1.53,3.22-1.53,5.68ZM818.06,263.31c-.5-.08-1.04-.13-1.62-.13-2.15,0-3.62.94-4.38,2.82v14.29h-3v-20h2.91l.05,2.28c1.08-1.76,2.6-2.64,4.58-2.64.64,0,1.12.08,1.46.25v3.13ZM833.15,275.14c0-.93-.35-1.65-1.05-2.16-.7-.51-1.92-.96-3.66-1.33-1.74-.37-3.12-.82-4.14-1.34s-1.78-1.14-2.27-1.86-.73-1.57-.73-2.56c0-1.65.7-3.04,2.09-4.18,1.39-1.14,3.17-1.71,5.34-1.71,2.28,0,4.12.59,5.54,1.76,1.42,1.18,2.13,2.68,2.13,4.51h-3.45c0-.94-.4-1.75-1.2-2.43-.8-.68-1.8-1.02-3.02-1.02s-2.23.27-2.93.82-1.06,1.26-1.06,2.13c0,.83.33,1.45.98,1.87.66.42,1.84.82,3.55,1.21,1.71.38,3.1.84,4.17,1.37,1.06.53,1.85,1.17,2.37,1.92.45.65.7,1.43.76,2.33.11,1.8-.67,3.59-2.1,4.69s-3.32,1.66-5.63,1.66c-1.61,0-3.03-.28-4.27-.85-1.24-.57-2.21-1.36-2.9-2.38-.7-1.02-1.05-2.13-1.05-3.31h3.43c.06,1.15.52,2.06,1.38,2.74.86.67,1.99,1.01,3.41,1.01,1.3,0,2.34-.26,3.13-.79.79-.53,1.18-1.23,1.18-2.11ZM844.06,262.95c1.48-1.83,3.4-2.75,5.77-2.75,4.12,0,6.2,2.35,6.23,7.05v13.03h-3v-13.03c-.01-1.42-.35-2.47-1-3.15-.65-.68-1.67-1.02-3.06-1.02-1.12,0-2.11.29-2.96.87-.85.58-1.51,1.35-1.98,2.29v14.03h-3v-28h3v10.66ZM861.73,255.24c0-.55.17-1.01.5-1.38.33-.38.83-.56,1.48-.56s1.15.19,1.49.56c.34.38.51.84.51,1.38s-.17,1-.51,1.36c-.34.36-.84.55-1.49.55s-1.15-.18-1.48-.55c-.33-.36-.5-.82-.5-1.36ZM865.06,280.29h-3v-20h3v20ZM887.06,270.35c0,3-.67,5.41-2.01,7.24-1.34,1.83-3.16,2.75-5.46,2.75s-4.19-.76-5.53-2.28v9.22h-3v-27h2.71l.16,2.18c1.34-1.7,3.21-2.55,5.6-2.55s4.15.89,5.5,2.67c1.35,1.78,2.02,4.26,2.02,7.44v.31ZM883.96,270.14c0-2.22-.47-3.97-1.42-5.26s-2.24-1.93-3.89-1.93c-2.04,0-3.57.9-4.59,2.71v9.41c1.01,1.8,2.55,2.69,4.62,2.69,1.61,0,2.9-.64,3.85-1.92.95-1.28,1.43-3.18,1.43-5.7Z"/>
</svg>