<svg width="606" height="444" viewBox="0 0 606 444" fill="none" xmlns="http://www.w3.org/2000/svg">
<g opacity="0.3">
<path d="M392.441 0H45.6327C20.4304 0 0 20.3674 0 45.4918C0 70.6162 20.4304 90.9836 45.6327 90.9836H392.441C417.643 90.9836 438.074 70.6162 438.074 45.4918C438.074 20.3674 417.643 0 392.441 0Z" fill="#1050AD"/>
<path d="M560.367 118.278H213.559C188.357 118.278 167.926 138.646 167.926 163.77C167.926 188.895 188.357 209.262 213.559 209.262H560.367C585.57 209.262 606 188.895 606 163.77C606 138.646 585.57 118.278 560.367 118.278Z" fill="#00AFA5"/>
<path d="M290.225 234.738H47.4591C22.2569 234.738 1.82642 255.105 1.82642 280.229C1.82642 305.354 22.2569 325.721 47.4591 325.721H290.225C315.427 325.721 335.858 305.354 335.858 280.229C335.858 255.105 315.427 234.738 290.225 234.738Z" fill="#1050AD"/>
<path d="M456.325 353.016H213.559C188.357 353.016 167.926 373.384 167.926 398.508C167.926 423.633 188.357 444 213.559 444H456.325C481.527 444 501.957 423.633 501.957 398.508C501.957 373.384 481.527 353.016 456.325 353.016Z" fill="#00AFA5"/>
</g>
</svg>
