<?xml version="1.0" encoding="UTF-8"?>
<svg version="1.1" xmlns="http://www.w3.org/2000/svg" width="512" height="512">
<path d="M0 0 C1.01790619 0.00215515 2.03581238 0.0043103 3.08456421 0.00653076 C17.69363523 0.05620146 32.02575853 0.30709809 46.375 3.3125 C47.34985352 3.51117676 48.32470703 3.70985352 49.32910156 3.91455078 C92.59881524 12.96579926 132.80019334 31.35020671 166.375 60.3125 C167.12007813 60.94671875 167.86515625 61.5809375 168.6328125 62.234375 C182.98692899 74.78814468 196.76458291 88.39687437 207.375 104.3125 C207.37864563 103.24032227 207.38229126 102.16814453 207.38604736 101.06347656 C207.42304747 90.94108091 207.48087506 80.81898806 207.55890274 70.69682312 C207.59835006 65.49334483 207.63055208 60.29003507 207.64599609 55.08642578 C207.66118064 50.061178 207.6956584 45.03639365 207.74330902 40.01135254 C207.75810423 38.097738 207.76603994 36.18405729 207.76688385 34.27038574 C207.76926087 31.58210297 207.79639899 28.89509331 207.82910156 26.20703125 C207.8240712 25.42227921 207.81904083 24.63752716 207.81385803 23.82899475 C207.93738678 17.2318087 209.97608874 12.05002498 214.33984375 7.0703125 C214.99082031 6.53148437 215.64179688 5.99265625 216.3125 5.4375 C216.96089844 4.88320312 217.60929687 4.32890625 218.27734375 3.7578125 C224.77857557 -0.72162097 231.74640917 -0.36213728 239.375 0.3125 C246.03459333 1.99335583 250.56047447 6.77628322 254.375 12.3125 C256.18054714 16.10730694 256.62896952 19.1191804 256.64242554 23.30654907 C256.65095551 24.50916382 256.65948547 25.71177856 256.66827393 26.95083618 C256.66736755 28.26208466 256.66646118 29.57333313 256.66552734 30.92431641 C256.67151504 32.32591102 256.67832114 33.72750235 256.68588257 35.12908936 C256.70353129 38.93108118 256.70823764 42.73298294 256.70951414 46.53501177 C256.71093763 48.91427447 256.7152111 51.29351442 256.72050858 53.67277145 C256.73900937 61.9848246 256.74717966 70.29681367 256.74560547 78.60888672 C256.744406 86.33703571 256.76546986 94.06490454 256.7970928 101.7929827 C256.82332334 108.44204595 256.83396984 115.09101815 256.83269465 121.74013269 C256.83218674 125.70488292 256.83777363 129.66938444 256.85905075 133.63408279 C256.87854633 137.36886837 256.87848135 141.10317103 256.86401749 144.83797455 C256.86095963 146.84567123 256.87752878 148.85336855 256.89489746 150.86099243 C256.81146934 162.98921835 253.83667792 172.44868293 245.375 181.3125 C239.40905148 187.00778166 233.23106455 189.94833852 225.375 192.3125 C226.2017491 198.66227404 227.48039891 204.88057174 228.82617188 211.13867188 C231.89611904 225.97480436 232.78382511 240.51969827 232.75 255.625 C232.74918427 257.00288193 232.74918427 257.00288193 232.74835205 258.40859985 C232.66406045 289.51253921 226.1482839 318.21188401 215.375 347.3125 C215.98214844 347.59609375 216.58929688 347.8796875 217.21484375 348.171875 C222.27790145 350.84531596 225.41757511 355.02745281 227.375 360.3125 C230.24094243 374.48789217 223.58286241 384.92484214 215.9765625 396.42724609 C200.4326924 419.35753859 181.52203874 441.48196576 159.375 458.3125 C158.83472168 458.72918945 158.29444336 459.14587891 157.73779297 459.57519531 C147.7427884 467.2584873 137.28290964 474.00092968 126.375 480.3125 C125.69775879 480.70679199 125.02051758 481.10108398 124.32275391 481.50732422 C98.40376191 496.41535371 68.91148362 505.97401819 39.375 510.3125 C38.17037109 510.48982666 36.96574219 510.66715332 35.72460938 510.84985352 C24.06732646 512.448825 12.50313902 512.6709053 0.75 512.625 C-0.70483292 512.62226578 -0.70483292 512.62226578 -2.1890564 512.61947632 C-16.54056055 512.57408309 -30.50442918 512.0687347 -44.625 509.3125 C-45.52202637 509.15152832 -46.41905273 508.99055664 -47.34326172 508.82470703 C-91.27141365 500.87594879 -131.61841837 480.99832396 -165.625 452.3125 C-166.48996094 451.66023438 -167.35492188 451.00796875 -168.24609375 450.3359375 C-173.08483405 446.22022736 -175.26572331 441.07521383 -176.078125 434.828125 C-176.30195036 427.3779381 -175.29932791 422.71294216 -171.625 416.3125 C-171.82031944 412.20229962 -174.50914671 410.02771957 -177.25 407.1875 C-181.92062172 402.2014771 -185.88541062 397.02094604 -189.625 391.3125 C-190.89730469 391.55033203 -190.89730469 391.55033203 -192.1953125 391.79296875 C-200.19749242 393.00514407 -208.6246473 393.74687807 -215.87890625 389.67578125 C-241.86026263 369.39056116 -250.78390294 319.16736373 -254.73828125 288.51171875 C-255.99706641 277.93001157 -255.97802464 267.32998518 -255.9375 256.6875 C-255.93534485 255.66959381 -255.9331897 254.65168762 -255.93096924 253.60293579 C-255.88129854 238.99386477 -255.63040191 224.66174147 -252.625 210.3125 C-252.42632324 209.33764648 -252.22764648 208.36279297 -252.02294922 207.35839844 C-241.77138226 158.35053302 -219.43217348 114.34635801 -184.625 78.3125 C-184.02606934 77.69165527 -183.42713867 77.07081055 -182.81005859 76.43115234 C-165.87959289 58.97638834 -146.86730686 44.19290282 -125.625 32.3125 C-124.5728833 31.71574463 -124.5728833 31.71574463 -123.49951172 31.10693359 C-100.35829588 18.07442729 -75.18410216 9.32127158 -49.1875 4 C-48.46860596 3.85264404 -47.74971191 3.70528809 -47.0090332 3.5534668 C-31.36274391 0.57960912 -15.88931954 -0.06050362 0 0 Z " fill="#C9E9FE" transform="translate(255.625,-0.3125)"/>
<path d="M0 0 C1.01790619 0.00215515 2.03581238 0.0043103 3.08456421 0.00653076 C17.69363523 0.05620146 32.02575853 0.30709809 46.375 3.3125 C47.34985352 3.51117676 48.32470703 3.70985352 49.32910156 3.91455078 C92.59881524 12.96579926 132.80019334 31.35020671 166.375 60.3125 C167.12007813 60.94671875 167.86515625 61.5809375 168.6328125 62.234375 C182.98692899 74.78814468 196.76458291 88.39687437 207.375 104.3125 C207.37864563 103.24032227 207.38229126 102.16814453 207.38604736 101.06347656 C207.42304747 90.94108091 207.48087506 80.81898806 207.55890274 70.69682312 C207.59835006 65.49334483 207.63055208 60.29003507 207.64599609 55.08642578 C207.66118064 50.061178 207.6956584 45.03639365 207.74330902 40.01135254 C207.75810423 38.097738 207.76603994 36.18405729 207.76688385 34.27038574 C207.76926087 31.58210297 207.79639899 28.89509331 207.82910156 26.20703125 C207.8240712 25.42227921 207.81904083 24.63752716 207.81385803 23.82899475 C207.93738678 17.2318087 209.97608874 12.05002498 214.33984375 7.0703125 C214.99082031 6.53148437 215.64179688 5.99265625 216.3125 5.4375 C216.96089844 4.88320312 217.60929687 4.32890625 218.27734375 3.7578125 C224.77857557 -0.72162097 231.74640917 -0.36213728 239.375 0.3125 C246.03459333 1.99335583 250.56047447 6.77628322 254.375 12.3125 C256.18054714 16.10730694 256.62896952 19.1191804 256.64242554 23.30654907 C256.65095551 24.50916382 256.65948547 25.71177856 256.66827393 26.95083618 C256.66736755 28.26208466 256.66646118 29.57333313 256.66552734 30.92431641 C256.67151504 32.32591102 256.67832114 33.72750235 256.68588257 35.12908936 C256.70353129 38.93108118 256.70823764 42.73298294 256.70951414 46.53501177 C256.71093763 48.91427447 256.7152111 51.29351442 256.72050858 53.67277145 C256.73900937 61.9848246 256.74717966 70.29681367 256.74560547 78.60888672 C256.744406 86.33703571 256.76546986 94.06490454 256.7970928 101.7929827 C256.82332334 108.44204595 256.83396984 115.09101815 256.83269465 121.74013269 C256.83218674 125.70488292 256.83777363 129.66938444 256.85905075 133.63408279 C256.87854633 137.36886837 256.87848135 141.10317103 256.86401749 144.83797455 C256.86095963 146.84567123 256.87752878 148.85336855 256.89489746 150.86099243 C256.81146934 162.98921835 253.83667792 172.44868293 245.375 181.3125 C235.30929231 190.92154042 224.69298574 192.91556117 211.1262207 192.83007812 C209.72872187 192.83551125 208.33122878 192.84264054 206.93374634 192.85131836 C203.1714384 192.86940854 199.40957375 192.86254557 195.647259 192.84980202 C191.69387977 192.83960549 187.74053602 192.84908546 183.78715515 192.85534668 C177.15417734 192.86260131 170.52137834 192.85309039 163.88842773 192.83398438 C156.23504638 192.81219275 148.58209097 192.81929221 140.92871982 192.84129 C134.33645857 192.85947437 127.74432509 192.86198834 121.15204686 192.85153532 C117.22384009 192.84532048 113.29583323 192.84440958 109.36763954 192.85768127 C105.67623808 192.86928465 101.98538342 192.8611333 98.29404068 192.83810425 C96.30374643 192.83034385 94.31340562 192.84213272 92.32313538 192.85461426 C83.92944076 192.77560814 78.43510912 191.79903815 71.9140625 186.19921875 C66.02627582 179.43427202 63.81507996 173.80827078 64.07421875 164.79296875 C64.99658237 157.18646361 69.47576434 152.85061531 75.05859375 147.9765625 C80.35829952 144.16935397 85.07882282 144.00983305 91.38793945 143.99365234 C92.73502739 143.97858391 92.73502739 143.97858391 94.10932922 143.96321106 C97.06897357 143.93239328 100.0285275 143.91534774 102.98828125 143.8984375 C105.04380572 143.87972473 107.09932251 143.86015124 109.15483093 143.8397522 C114.55851721 143.78843655 119.96222839 143.74880769 125.36602783 143.71160889 C130.88275307 143.67156577 136.39937476 143.6204748 141.91601562 143.5703125 C152.73560434 143.47355988 163.55525153 143.38915287 174.375 143.3125 C172.51560539 140.62213224 170.64543283 137.93942431 168.7734375 135.2578125 C168.25450928 134.50669189 167.73558105 133.75557129 167.20092773 132.98168945 C162.91746332 126.86292783 158.16024298 121.42326659 152.9921875 116.046875 C150.9355361 113.89813473 149.00658202 111.73608128 147.125 109.4375 C143.89206233 105.63022957 140.21479545 102.4942173 136.375 99.3125 C135.63926758 98.68432373 135.63926758 98.68432373 134.88867188 98.04345703 C91.07874278 60.70485019 34.70402691 45.27339228 -22.15307617 49.77709961 C-65.80215353 54.03611507 -107.25235748 73.62049961 -139.3515625 103.2265625 C-141.4639424 105.1647255 -143.62498072 107.02273271 -145.8125 108.875 C-149.81990421 112.38746584 -153.25329758 116.19153038 -156.625 120.3125 C-157.4603125 121.3334375 -158.295625 122.354375 -159.15625 123.40625 C-195.41150045 168.32139984 -210.99454608 222.47649154 -206.1628418 279.83813477 C-203.86368172 301.257937 -197.43057533 323.28957046 -188.21875 342.70703125 C-187.92311157 343.33076126 -187.62747314 343.95449127 -187.32287598 344.59712219 C-185.86495417 347.65081514 -184.37467188 350.68023923 -182.84179688 353.69750977 C-178.9768181 361.54097541 -176.91520642 367.74657622 -179.54296875 376.30078125 C-182.1054802 380.99214837 -184.4431342 384.921798 -188.625 388.3125 C-189.285 388.3125 -189.945 388.3125 -190.625 388.3125 C-190.625 388.9725 -190.625 389.6325 -190.625 390.3125 C-197.17485913 393.39623782 -205.19739469 393.58440525 -212.140625 391.58984375 C-227.7764746 384.21951006 -234.8661933 361.34770506 -240.625 346.3125 C-251.11023614 317.02460632 -256.05556827 287.69431176 -255.9375 256.6875 C-255.93534485 255.66959381 -255.9331897 254.65168762 -255.93096924 253.60293579 C-255.88129854 238.99386477 -255.63040191 224.66174147 -252.625 210.3125 C-252.42632324 209.33764648 -252.22764648 208.36279297 -252.02294922 207.35839844 C-241.77138226 158.35053302 -219.43217348 114.34635801 -184.625 78.3125 C-184.02606934 77.69165527 -183.42713867 77.07081055 -182.81005859 76.43115234 C-165.87959289 58.97638834 -146.86730686 44.19290282 -125.625 32.3125 C-124.5728833 31.71574463 -124.5728833 31.71574463 -123.49951172 31.10693359 C-100.35829588 18.07442729 -75.18410216 9.32127158 -49.1875 4 C-48.46860596 3.85264404 -47.74971191 3.70528809 -47.0090332 3.5534668 C-31.36274391 0.57960912 -15.88931954 -0.06050362 0 0 Z " fill="#128DDD" transform="translate(255.625,-0.3125)"/>
<path d="M0 0 C2.75 2.1875 2.75 2.1875 5 5 C5.45375 5.56589844 5.9075 6.13179688 6.375 6.71484375 C10.6704804 12.68214465 11.77512384 18.95724028 10.66015625 26.2109375 C1.53527117 58.29713471 -32.20003362 91.39344119 -58 111 C-58.54027832 111.41668945 -59.08055664 111.83337891 -59.63720703 112.26269531 C-69.6322116 119.9459873 -80.09209036 126.68842968 -91 133 C-91.67724121 133.39429199 -92.35448242 133.78858398 -93.05224609 134.19482422 C-118.97123809 149.10285371 -148.46351638 158.66151819 -178 163 C-179.20462891 163.17732666 -180.40925781 163.35465332 -181.65039062 163.53735352 C-193.30767354 165.136325 -204.87186098 165.3584053 -216.625 165.3125 C-217.59488861 165.31067719 -218.56477722 165.30885437 -219.5640564 165.30697632 C-233.91556055 165.26158309 -247.87942918 164.7562347 -262 162 C-262.89702637 161.83902832 -263.79405273 161.67805664 -264.71826172 161.51220703 C-308.64641365 153.56344879 -348.99341837 133.68582396 -383 105 C-384.29744141 104.02160156 -384.29744141 104.02160156 -385.62109375 103.0234375 C-390.45983405 98.90772736 -392.64072331 93.76271383 -393.453125 87.515625 C-393.65878002 80.67025073 -393.52369755 74.43603991 -389 69 C-383.40015771 63.69168963 -377.00098447 59.96320189 -369.1875 59.5 C-359.20447087 59.91970693 -352.37999722 66.15602474 -345.00756836 72.2097168 C-302.40648374 106.91175144 -246.4299297 120.62234021 -192.25 115.3125 C-150.14548445 110.5065588 -110.68492421 91.69299122 -79 64 C-78.1642041 63.27586914 -78.1642041 63.27586914 -77.31152344 62.53710938 C-71.3931599 57.38846456 -65.95449241 52.07777814 -61 46 C-60.57106445 45.4834082 -60.14212891 44.96681641 -59.70019531 44.43457031 C-50.81767637 33.72382811 -42.70679996 22.63930047 -35.875 10.5 C-28.03463377 -2.82640152 -13.94493621 -7.00069672 0 0 Z " fill="#128DDD" transform="translate(473,347)"/>
</svg>
