<svg width="38" height="40" viewBox="0 0 38 40" fill="none" xmlns="http://www.w3.org/2000/svg">
<g clip-path="url(#clip0_55_24)">
<path d="M6.77719 13.1175C8.35665 11.4918 10.4564 10.5956 12.6915 10.5956H31.1354L26.9837 14.8689L29.5214 17.4809L38.0001 8.7541L29.5268 0L26.9863 2.60656L31.1487 6.90437H12.6915C9.50076 6.90437 6.49846 8.18306 4.24208 10.5082C1.98571 12.8306 0.740723 15.9208 0.740723 19.2049H4.32703C4.32703 16.9044 5.19773 14.7432 6.77719 13.1175Z" fill="#CFCFCF"/>
<path d="M31.2229 26.8798C29.6435 28.5055 27.5437 29.4017 25.3086 29.4017H6.86469L11.0164 25.1284L8.47866 22.5164L0 31.2459L8.47335 40L11.0138 37.3935L6.85142 33.0957H25.3059C28.4967 33.0957 31.499 31.817 33.7554 29.4918C36.0117 27.1694 37.2567 24.0793 37.2567 20.7951H33.6704C33.6704 23.0929 32.7997 25.2569 31.2203 26.8825L31.2229 26.8798Z" fill="#CFCFCF"/>
</g>
<defs>
<clipPath id="clip0_55_24">
<rect width="38" height="40" fill="white"/>
</clipPath>
</defs>
</svg>
